<?xml version="1.0" encoding="utf-8"?>
<!-- Generator: Adobe Illustrator 27.0.0, SVG Export Plug-In . SVG Version: 6.00 Build 0)  -->
<svg version="1.1" id="Capa_1" xmlns="http://www.w3.org/2000/svg" xmlns:xlink="http://www.w3.org/1999/xlink" x="0px" y="0px"
	 viewBox="0 0 374.99 137.22" style="enable-background:new 0 0 374.99 137.22;" xml:space="preserve">
<style type="text/css">
	.st0{fill:#fff;}
</style>
<g>
	<g>
		<path class="st0" d="M17.53,22.7c2.1,0.91,3.56,1.86,4.39,2.86c0.82,0.99,1.43,2.53,1.82,4.6c0.51,2.72,1.22,4.56,2.12,5.49
			c0.9,0.94,2.09,1.44,3.55,1.5c0.41,0.03,0.61,0.18,0.61,0.44c0,0.27-0.23,0.4-0.7,0.4c-4.24,0-6.81-0.14-7.71-0.42
			c-0.9-0.28-1.57-1.83-2.01-4.64c-0.41-2.74-0.84-4.74-1.28-6.01c-0.45-1.26-1.16-2.23-2.13-2.91c-0.98-0.67-2.5-1.01-4.58-1.01
			c-0.79,0-1.68,0.08-2.68,0.25c-0.08,0.95-0.11,1.94-0.11,2.97c0,3.88,0.05,6.4,0.16,7.54s0.43,1.97,0.96,2.49s1.43,0.8,2.69,0.83
			c0.54,0.02,0.82,0.15,0.82,0.4c0,0.3-0.33,0.44-1,0.44H1.21c-0.65,0-0.98-0.15-0.98-0.44c0-0.26,0.26-0.4,0.77-0.4
			c1.15,0,1.95-0.17,2.4-0.52s0.8-0.89,1.06-1.62c0.26-0.73,0.39-2.06,0.39-3.98L4.8,26.33l0.02-7.06c0-3.6-0.08-5.98-0.24-7.15
			c-0.16-1.16-0.44-1.95-0.85-2.35S2.37,9.07,0.89,8.84C0.57,8.79,0.41,8.67,0.41,8.45c0-0.24,0.32-0.36,0.95-0.36l13.44-0.3
			c3.71,0,6.4,0.71,8.07,2.13c1.67,1.42,2.51,3.16,2.51,5.22c0,1.3-0.34,2.49-1.01,3.56c-0.67,1.07-1.47,1.85-2.4,2.34
			C21.06,21.53,19.58,22.08,17.53,22.7z M8.93,22.12c2.91-0.06,5.09-0.26,6.54-0.61c1.45-0.35,2.69-1.11,3.71-2.29
			c1.02-1.18,1.53-2.58,1.53-4.2c0-1.71-0.57-3.2-1.7-4.47c-1.14-1.27-2.95-1.91-5.45-1.91c-1.36,0-2.87,0.18-4.52,0.54
			c-0.18,4.16-0.27,7.48-0.27,9.94C8.77,19.97,8.82,20.97,8.93,22.12z"/>
		<path class="st0" d="M31.78,27.32c-0.06,0.77-0.09,1.39-0.09,1.84c0,2.15,0.63,3.97,1.9,5.45c1.27,1.48,2.83,2.23,4.7,2.23
			c1.82,0,3.51-0.73,5.07-2.18c0.46-0.41,0.74-0.61,0.87-0.61c0.24,0,0.37,0.2,0.39,0.59c-0.58,1.06-1.56,1.95-2.95,2.68
			c-1.39,0.73-2.95,1.09-4.66,1.09c-2.51,0-4.64-0.9-6.38-2.71s-2.61-4.1-2.61-6.87c0-2.97,0.96-5.44,2.87-7.42
			c1.91-1.98,3.96-2.97,6.14-2.97c2.04,0,3.89,0.78,5.54,2.33s2.48,3.37,2.48,5.46c0,0.32-0.05,0.55-0.15,0.7
			c-0.1,0.15-0.68,0.23-1.74,0.23L31.78,27.32z M31.78,26.14c1.97,0.09,3.88,0.14,5.73,0.14l1.21-0.07
			c0.91-0.03,1.61-0.21,2.09-0.53c0.49-0.33,0.73-0.9,0.73-1.71c0-1.27-0.44-2.38-1.31-3.33c-0.87-0.95-1.9-1.42-3.08-1.42
			c-1.09,0-2.18,0.54-3.27,1.62S32.1,23.69,31.78,26.14z"/>
		<path class="st0" d="M56.47,33.93c3.26-7.19,4.89-11.59,4.89-13.19c0-0.7-0.42-1.07-1.27-1.14c-0.5-0.03-0.75-0.17-0.75-0.41
			c0-0.3,0.19-0.45,0.57-0.45l3.41,0.05l2.04-0.02c0.48,0,0.73,0.15,0.73,0.45c0,0.23-0.17,0.36-0.52,0.39
			c-1.24,0.14-2.14,0.66-2.7,1.58c-0.56,0.92-1.32,2.59-2.27,5.03c-1.6,4.12-2.77,6.94-3.49,8.47c-0.71,1.47-1.13,2.41-1.25,2.82
			c-0.18,0.51-0.4,0.77-0.66,0.77c-0.18,0-0.41-0.32-0.68-0.95l-2.71-5.86l-2.82-6.29c-0.96-2.15-1.64-3.53-2.05-4.14
			c-0.41-0.61-0.71-0.98-0.91-1.11c-0.2-0.13-0.57-0.24-1.11-0.33c-0.35-0.06-0.52-0.2-0.52-0.43c0-0.3,0.22-0.45,0.66-0.45
			l3.95,0.05c1.86,0,2.91-0.01,3.13-0.02c0.53,0,0.79,0.14,0.79,0.43c0,0.23-0.27,0.39-0.82,0.48c-0.77,0.14-1.16,0.53-1.16,1.18
			C50.96,21.99,52.8,26.36,56.47,33.93z"/>
		<path class="st0" d="M72.5,18.42l-0.02,5.11l0.05,4.77v3.59l-0.02,2.72c0,1.09,0.18,1.78,0.53,2.08c0.36,0.29,0.89,0.46,1.6,0.49
			c0.83,0.05,1.25,0.22,1.25,0.52c0,0.24-0.16,0.36-0.48,0.36c-0.12,0-0.26-0.01-0.41-0.02c-1.41-0.18-2.72-0.27-3.93-0.27
			c-1.94,0-3.28,0.06-4.02,0.18c-0.15,0.03-0.3,0.05-0.45,0.05c-0.36,0-0.54-0.14-0.54-0.41s0.42-0.46,1.26-0.57
			c0.84-0.11,1.38-0.29,1.61-0.56s0.35-1.02,0.35-2.26l0.16-9.4c0-2.51-0.19-4-0.57-4.46s-1.11-0.71-2.2-0.74
			c-0.36,0-0.54-0.12-0.54-0.36c0-0.14,0.06-0.24,0.18-0.32c0.12-0.08,1.02-0.17,2.7-0.29S71.85,18.44,72.5,18.42z M69.98,7.32
			c0.57,0,1.09,0.21,1.54,0.64c0.45,0.42,0.68,0.89,0.68,1.38c0,0.59-0.19,1.1-0.56,1.52s-0.88,0.64-1.53,0.64
			c-0.58,0-1.09-0.19-1.54-0.56s-0.68-0.87-0.68-1.51c0-0.62,0.19-1.13,0.58-1.52C68.86,7.52,69.36,7.32,69.98,7.32z"/>
		<path class="st0" d="M90.54,31.92c0,1.75-0.65,3.26-1.95,4.52c-1.3,1.26-2.84,1.89-4.62,1.89c-1.06,0-2.32-0.34-3.79-1.02
			c-0.8-0.36-1.28-0.54-1.43-0.54c-0.26,0-0.48,0.16-0.68,0.48c-0.25,0.42-0.48,0.64-0.7,0.64c-0.19,0-0.3-0.22-0.35-0.65
			c-0.05-0.43-0.08-1.41-0.09-2.94c-0.02-1.32-0.04-2.16-0.07-2.54c0-0.56,0.15-0.84,0.44-0.84c0.17,0,0.3,0.14,0.4,0.43
			c0.59,1.73,1.41,3.19,2.47,4.39c1.06,1.2,2.31,1.8,3.74,1.8c1.01,0,1.91-0.31,2.69-0.94s1.18-1.48,1.18-2.55
			c0-1.66-1.44-3.14-4.33-4.43c-1.98-0.89-3.3-1.53-3.96-1.94c-0.67-0.41-1.19-0.96-1.56-1.66c-0.38-0.7-0.57-1.46-0.57-2.27
			c0-1.56,0.59-2.87,1.77-3.92s2.62-1.58,4.3-1.58c1.24,0,2.61,0.39,4.1,1.16c0.24,0.12,0.45,0.18,0.64,0.18
			c0.15,0,0.32-0.12,0.5-0.38c0.18-0.23,0.32-0.35,0.42-0.35c0.13,0,0.24,0.06,0.31,0.17c0.07,0.11,0.16,0.78,0.25,2.01
			s0.14,2.23,0.14,3.02c0,0.49-0.13,0.73-0.39,0.73c-0.23,0-0.41-0.22-0.54-0.66c-0.12-0.41-0.48-1.18-1.09-2.33
			s-1.27-1.88-1.99-2.19s-1.43-0.48-2.12-0.48c-1.09,0-1.98,0.26-2.68,0.79c-0.7,0.53-1.04,1.22-1.04,2.06c0,0.53,0.14,1,0.43,1.43
			s0.56,0.74,0.81,0.95c0.25,0.21,1.69,0.91,4.33,2.1c1.63,0.74,2.71,1.31,3.22,1.71c0.51,0.4,0.95,0.94,1.29,1.62
			C90.37,30.47,90.54,31.18,90.54,31.92z"/>
		<path class="st0" d="M99.21,20.51c-0.21,3.35-0.32,6.64-0.32,9.87c0,2.49,0.3,4.11,0.89,4.87s1.44,1.14,2.55,1.14
			c0.81,0,1.69-0.3,2.67-0.89c0.35-0.21,0.56-0.32,0.64-0.32c0.2,0,0.29,0.11,0.29,0.32c0,0.36-0.54,0.94-1.62,1.73
			c-1.08,0.79-2.4,1.18-3.96,1.18c-1.55,0-2.71-0.54-3.48-1.61c-0.77-1.08-1.16-2.68-1.16-4.82c0-2.23,0.14-6.05,0.41-11.46
			c-0.11-0.03-0.83-0.08-2.16-0.16l-1.36-0.09c-0.33-0.02-0.5-0.13-0.5-0.34c0-0.2,0.19-0.35,0.57-0.48
			c0.62-0.23,1.66-0.89,3.12-1.99s2.31-2.66,2.56-4.66c0.06-0.53,0.23-0.79,0.51-0.79c0.28,0,0.42,0.21,0.42,0.63
			c0,0.14-0.01,0.28-0.02,0.43c-0.05,0.59-0.07,1.27-0.07,2.04l0.02,3.53l4.97-0.07c0.85,0,1.29,0.1,1.32,0.3
			c-0.02,0.7-0.13,1.14-0.34,1.32C104.37,20.17,102.39,20.28,99.21,20.51z"/>
		<path class="st0" d="M117.43,35.02c-0.74,1.07-1.63,1.88-2.66,2.42c-1.03,0.54-2.2,0.81-3.5,0.81c-1.53,0-2.73-0.41-3.6-1.23
			c-0.87-0.82-1.31-1.89-1.31-3.23c0-1,0.26-1.93,0.78-2.79c0.52-0.86,1.12-1.48,1.79-1.86s1.86-0.86,3.55-1.43
			c2.42-0.8,3.87-1.47,4.36-2c0.48-0.53,0.73-1.22,0.73-2.07c0-1.35-0.32-2.4-0.95-3.15c-0.64-0.75-1.54-1.13-2.7-1.13
			c-0.95,0-1.67,0.21-2.16,0.64c-0.48,0.44-0.86,1.3-1.11,2.58c-0.27,1.4-0.87,2.1-1.79,2.1c-0.33,0-0.7-0.17-1.1-0.5
			s-0.6-0.82-0.6-1.48c0-1.14,0.63-2.12,1.88-2.96c1.26-0.84,2.98-1.26,5.18-1.26c1.74,0,3.13,0.25,4.17,0.74
			c1.04,0.49,1.69,1.06,1.95,1.69c0.26,0.64,0.4,1.86,0.4,3.68l-0.14,6c0,2.32,0.14,3.97,0.42,4.94s0.8,1.47,1.56,1.47
			c0.15,0,0.36-0.02,0.64-0.07l0.39-0.05c0.35,0,0.52,0.13,0.52,0.38c0,0.58-1.49,0.87-4.47,0.87c-0.86,0-1.44-0.2-1.74-0.6
			C117.63,37.13,117.46,36.29,117.43,35.02z M117.43,26.16c-0.45,0.59-1.48,1.31-3.09,2.16c-1.59,0.82-2.73,1.6-3.43,2.34
			c-0.7,0.76-1.04,1.67-1.04,2.72c0,0.95,0.28,1.76,0.85,2.43c0.57,0.67,1.28,1,2.12,1c0.88,0,1.7-0.27,2.48-0.81
			s1.34-1.22,1.71-2.06c0.37-0.83,0.56-2.07,0.56-3.7C117.59,29.02,117.54,27.66,117.43,26.16z"/>
	</g>
</g>
<g>
	<g>
		<path class="st0" d="M152.07,7.98l4.14,0.09l6.35-0.09c0.76,0,1.14,0.15,1.14,0.45c0,0.23-0.2,0.37-0.61,0.43
			c-1.68,0.21-2.73,0.82-3.14,1.82c-0.42,1-0.62,4.69-0.62,11.08c0,2.35,0.06,4.99,0.18,7.92c0.12,2.94,0.26,4.69,0.41,5.27
			c0.15,0.58,0.44,1.04,0.86,1.41s1.21,0.62,2.36,0.77c0.38,0.05,0.57,0.19,0.57,0.43c0,0.27-0.17,0.41-0.52,0.41l-5.64-0.05
			l-4.8,0.07c-0.53,0-0.8-0.15-0.8-0.45c0-0.32,0.21-0.48,0.64-0.48c1.41-0.03,2.23-0.5,2.47-1.41s0.36-3.81,0.36-8.7
			c0-4.72-0.04-8.54-0.12-11.47s-0.33-4.71-0.74-5.36s-1.18-1.06-2.32-1.23c-0.42-0.08-0.64-0.25-0.64-0.52S151.75,7.98,152.07,7.98
			z"/>
		<path class="st0" d="M170.99,18.49c0.36,0.89,0.58,2.4,0.66,4.52c0.94-1.48,1.98-2.6,3.12-3.34c1.14-0.74,2.39-1.11,3.73-1.11
			c1.03,0,2.02,0.19,2.99,0.58c0.96,0.39,1.7,1.05,2.23,2c0.52,0.94,0.78,2.55,0.78,4.82l-0.14,7.64c0,1.41,0.12,2.29,0.35,2.64
			c0.23,0.36,0.74,0.64,1.51,0.85c0.53,0.15,0.79,0.32,0.79,0.5c0,0.23-0.13,0.34-0.39,0.34c-0.11,0-0.21-0.01-0.32-0.02
			c-0.7-0.14-1.73-0.21-3.09-0.21c-1.23,0-2.54,0.05-3.95,0.16c-0.56,0-0.84-0.13-0.84-0.39c0-0.18,0.15-0.3,0.45-0.36
			c0.83-0.18,1.38-0.37,1.63-0.57c0.26-0.2,0.44-0.46,0.54-0.78c0.11-0.33,0.19-1.42,0.26-3.28c0.07-1.86,0.1-3.37,0.1-4.54
			c0-3.19-0.4-5.31-1.2-6.37s-1.8-1.59-3-1.59c-1.77,0-3.24,0.96-4.42,2.87c-1.17,1.92-1.76,5.1-1.76,9.57
			c0,2.03,0.13,3.32,0.4,3.87c0.26,0.55,0.93,0.89,1.99,1.01c0.33,0.03,0.5,0.17,0.5,0.43c0,0.21-0.17,0.32-0.5,0.32l-1.18-0.09
			c-0.42-0.03-1.82-0.05-4.19-0.05l-1.81,0.05c-0.66,0-1-0.12-1-0.36c0-0.26,0.36-0.45,1.08-0.59c0.69-0.14,1.16-0.38,1.4-0.72
			c0.24-0.34,0.4-1.47,0.48-3.4c0.08-1.93,0.12-4.33,0.12-7.21c0-2.68-0.18-4.35-0.54-5s-0.87-1.05-1.52-1.21
			c-0.59-0.14-0.89-0.33-0.89-0.57c0-0.26,0.23-0.39,0.68-0.39l1.84,0.02C168.12,18.56,169.14,18.53,170.99,18.49z"/>
		<path class="st0" d="M194.54,20.51c-0.21,3.35-0.32,6.64-0.32,9.87c0,2.49,0.3,4.11,0.89,4.87c0.59,0.76,1.44,1.14,2.55,1.14
			c0.81,0,1.7-0.3,2.67-0.89c0.35-0.21,0.56-0.32,0.64-0.32c0.2,0,0.3,0.11,0.3,0.32c0,0.36-0.54,0.94-1.62,1.73
			c-1.08,0.79-2.4,1.18-3.96,1.18c-1.55,0-2.71-0.54-3.48-1.61c-0.77-1.08-1.16-2.68-1.16-4.82c0-2.23,0.14-6.05,0.41-11.46
			c-0.11-0.03-0.83-0.08-2.16-0.16l-1.36-0.09c-0.33-0.02-0.5-0.13-0.5-0.34c0-0.2,0.19-0.35,0.57-0.48
			c0.62-0.23,1.66-0.89,3.12-1.99s2.31-2.66,2.56-4.66c0.06-0.53,0.23-0.79,0.51-0.79c0.28,0,0.42,0.21,0.42,0.63
			c0,0.14-0.01,0.28-0.02,0.43c-0.05,0.59-0.07,1.27-0.07,2.04l0.02,3.53l4.97-0.07c0.85,0,1.29,0.1,1.32,0.3
			c-0.02,0.7-0.13,1.14-0.34,1.32C199.7,20.17,197.72,20.28,194.54,20.51z"/>
		<path class="st0" d="M204.56,27.32c-0.06,0.77-0.09,1.39-0.09,1.84c0,2.15,0.63,3.97,1.9,5.45c1.27,1.48,2.83,2.23,4.7,2.23
			c1.82,0,3.51-0.73,5.07-2.18c0.46-0.41,0.74-0.61,0.87-0.61c0.24,0,0.37,0.2,0.39,0.59c-0.58,1.06-1.56,1.95-2.95,2.68
			c-1.39,0.73-2.95,1.09-4.66,1.09c-2.51,0-4.64-0.9-6.38-2.71s-2.61-4.1-2.61-6.87c0-2.97,0.96-5.44,2.87-7.42s3.96-2.97,6.14-2.97
			c2.04,0,3.89,0.78,5.54,2.33c1.65,1.55,2.47,3.37,2.47,5.46c0,0.32-0.05,0.55-0.15,0.7c-0.1,0.15-0.68,0.23-1.74,0.23
			L204.56,27.32z M204.56,26.14c1.97,0.09,3.88,0.14,5.74,0.14l1.21-0.07c0.91-0.03,1.61-0.21,2.09-0.53
			c0.49-0.33,0.73-0.9,0.73-1.71c0-1.27-0.44-2.38-1.31-3.33c-0.87-0.95-1.9-1.42-3.08-1.42c-1.09,0-2.18,0.54-3.27,1.62
			C205.58,21.92,204.88,23.69,204.56,26.14z"/>
		<path class="st0" d="M224.46,23.58c0.95-1.7,1.97-2.97,3.05-3.82s2.22-1.27,3.42-1.27c0.83,0,1.55,0.3,2.16,0.9
			s0.91,1.28,0.91,2.03c0,1.44-0.61,2.16-1.84,2.16c-0.58,0-1.06-0.4-1.45-1.2c-0.49-1.01-1.13-1.52-1.93-1.52
			c-0.76,0-1.54,0.42-2.34,1.27c-0.8,0.85-1.34,1.78-1.61,2.79c-0.27,1.01-0.41,3.12-0.41,6.33c0,2.94,0.12,4.63,0.36,5.06
			s0.86,0.71,1.86,0.83c0.27,0.03,0.41,0.14,0.41,0.32c0,0.32-0.36,0.48-1.07,0.48h-7.24c-0.51,0-0.77-0.13-0.77-0.39
			c0-0.24,0.34-0.38,1.02-0.41c0.95-0.06,1.54-0.36,1.77-0.89c0.23-0.53,0.34-2.49,0.34-5.87c0-4.96-0.1-7.93-0.31-8.94
			s-0.96-1.53-2.28-1.59c-0.54-0.03-0.82-0.17-0.82-0.43c0-0.14,0.06-0.24,0.17-0.31c0.11-0.07,0.81-0.14,2.08-0.22l4.18-0.23
			C224.22,19.49,224.34,21.13,224.46,23.58z"/>
		<path class="st0" d="M241.4,18.49c0.36,0.89,0.58,2.4,0.66,4.52c0.94-1.48,1.98-2.6,3.12-3.34c1.14-0.74,2.39-1.11,3.74-1.11
			c1.03,0,2.02,0.19,2.99,0.58c0.96,0.39,1.7,1.05,2.22,2c0.52,0.94,0.78,2.55,0.78,4.82l-0.14,7.64c0,1.41,0.12,2.29,0.35,2.64
			c0.24,0.36,0.74,0.64,1.51,0.85c0.53,0.15,0.79,0.32,0.79,0.5c0,0.23-0.13,0.34-0.39,0.34c-0.11,0-0.21-0.01-0.32-0.02
			c-0.7-0.14-1.73-0.21-3.09-0.21c-1.23,0-2.54,0.05-3.95,0.16c-0.56,0-0.84-0.13-0.84-0.39c0-0.18,0.15-0.3,0.45-0.36
			c0.83-0.18,1.38-0.37,1.63-0.57c0.26-0.2,0.44-0.46,0.54-0.78c0.11-0.33,0.19-1.42,0.26-3.28c0.07-1.86,0.1-3.37,0.1-4.54
			c0-3.19-0.4-5.31-1.2-6.37c-0.8-1.06-1.8-1.59-3-1.59c-1.77,0-3.24,0.96-4.42,2.87c-1.17,1.92-1.76,5.1-1.76,9.57
			c0,2.03,0.13,3.32,0.4,3.87c0.26,0.55,0.93,0.89,1.99,1.01c0.33,0.03,0.5,0.17,0.5,0.43c0,0.21-0.17,0.32-0.5,0.32l-1.18-0.09
			c-0.42-0.03-1.82-0.05-4.19-0.05l-1.81,0.05c-0.66,0-1-0.12-1-0.36c0-0.26,0.36-0.45,1.08-0.59c0.69-0.14,1.16-0.38,1.4-0.72
			c0.24-0.34,0.4-1.47,0.49-3.4c0.08-1.93,0.12-4.33,0.12-7.21c0-2.68-0.18-4.35-0.54-5s-0.87-1.05-1.52-1.21
			c-0.59-0.14-0.89-0.33-0.89-0.57c0-0.26,0.23-0.39,0.68-0.39l1.84,0.02C238.53,18.56,239.56,18.53,241.4,18.49z"/>
		<path class="st0" d="M269.47,35.02c-0.74,1.07-1.63,1.88-2.66,2.42s-2.19,0.81-3.5,0.81c-1.53,0-2.73-0.41-3.6-1.23
			c-0.87-0.82-1.31-1.89-1.31-3.23c0-1,0.26-1.93,0.78-2.79c0.52-0.86,1.12-1.48,1.79-1.86c0.67-0.38,1.86-0.86,3.55-1.43
			c2.42-0.8,3.88-1.47,4.36-2c0.48-0.53,0.73-1.22,0.73-2.07c0-1.35-0.32-2.4-0.95-3.15c-0.64-0.75-1.54-1.13-2.7-1.13
			c-0.95,0-1.67,0.21-2.16,0.64c-0.48,0.44-0.86,1.3-1.11,2.58c-0.27,1.4-0.87,2.1-1.79,2.1c-0.33,0-0.7-0.17-1.1-0.5
			c-0.4-0.33-0.6-0.82-0.6-1.48c0-1.14,0.63-2.12,1.88-2.96c1.26-0.84,2.98-1.26,5.18-1.26c1.74,0,3.13,0.25,4.17,0.74
			c1.04,0.49,1.69,1.06,1.95,1.69c0.26,0.64,0.4,1.86,0.4,3.68l-0.14,6c0,2.32,0.14,3.97,0.42,4.94c0.28,0.98,0.8,1.47,1.55,1.47
			c0.15,0,0.36-0.02,0.64-0.07l0.39-0.05c0.35,0,0.52,0.13,0.52,0.38c0,0.58-1.49,0.87-4.47,0.87c-0.86,0-1.44-0.2-1.74-0.6
			C269.67,37.13,269.5,36.29,269.47,35.02z M269.47,26.16c-0.45,0.59-1.48,1.31-3.09,2.16c-1.59,0.82-2.73,1.6-3.43,2.34
			c-0.7,0.76-1.04,1.67-1.04,2.72c0,0.95,0.28,1.76,0.85,2.43c0.57,0.67,1.28,1,2.12,1c0.88,0,1.7-0.27,2.47-0.81
			c0.77-0.54,1.34-1.22,1.71-2.06c0.37-0.83,0.56-2.07,0.56-3.7C269.63,29.02,269.58,27.66,269.47,26.16z"/>
		<path class="st0" d="M275.5,28.76c0-2.77,0.89-5.2,2.67-7.27c1.78-2.08,3.95-3.11,6.51-3.11c1.65,0,3.23,0.41,4.75,1.21
			c1.51,0.81,2.27,1.82,2.27,3.03c0,0.47-0.14,0.88-0.43,1.24c-0.29,0.36-0.62,0.53-1,0.53c-0.85,0-1.5-0.68-1.95-2.04
			c-0.7-2.09-1.92-3.13-3.66-3.13c-1.73,0-3.04,0.75-3.94,2.24s-1.35,3.45-1.35,5.88c0,2.85,0.63,5.18,1.88,6.98
			c1.26,1.8,2.77,2.71,4.54,2.71c1.17,0,2.29-0.45,3.38-1.36c1.07-0.89,1.7-1.98,1.88-3.27c0.08-0.44,0.24-0.66,0.5-0.66
			c0.27,0,0.41,0.14,0.41,0.41c0,1.48-0.69,2.88-2.05,4.18c-1.37,1.3-3.21,1.95-5.51,1.95c-2.51,0-4.62-0.96-6.33-2.86
			C276.35,33.49,275.5,31.28,275.5,28.76z"/>
		<path class="st0" d="M298.71,18.42l-0.02,5.11l0.05,4.77v3.59l-0.02,2.72c0,1.09,0.18,1.78,0.53,2.08
			c0.36,0.29,0.89,0.46,1.6,0.49c0.83,0.05,1.25,0.22,1.25,0.52c0,0.24-0.16,0.36-0.48,0.36c-0.12,0-0.26-0.01-0.41-0.02
			c-1.41-0.18-2.72-0.27-3.93-0.27c-1.94,0-3.28,0.06-4.02,0.18c-0.15,0.03-0.3,0.05-0.45,0.05c-0.36,0-0.54-0.14-0.54-0.41
			s0.42-0.46,1.26-0.57s1.38-0.29,1.61-0.56s0.35-1.02,0.35-2.26l0.16-9.4c0-2.51-0.19-4-0.57-4.46c-0.38-0.46-1.11-0.71-2.2-0.74
			c-0.36,0-0.54-0.12-0.54-0.36c0-0.14,0.06-0.24,0.18-0.32c0.12-0.08,1.02-0.17,2.7-0.29C296.89,18.5,298.06,18.44,298.71,18.42z
			 M296.19,7.32c0.58,0,1.09,0.21,1.54,0.64c0.45,0.42,0.68,0.89,0.68,1.38c0,0.59-0.19,1.1-0.56,1.52
			c-0.37,0.42-0.88,0.64-1.53,0.64c-0.58,0-1.09-0.19-1.54-0.56s-0.68-0.87-0.68-1.51c0-0.62,0.19-1.13,0.58-1.52
			C295.06,7.52,295.57,7.32,296.19,7.32z"/>
		<path class="st0" d="M301.83,28.45c0-2.66,0.96-5,2.88-7.03c1.92-2.03,4.28-3.04,7.08-3.04c2.63,0,4.9,0.91,6.8,2.72
			s2.85,4.08,2.85,6.8c0,2.75-1,5.17-3,7.25s-4.33,3.12-6.99,3.12c-2.63,0-4.9-0.96-6.79-2.87
			C302.77,33.48,301.83,31.17,301.83,28.45z M305.5,28.31c0,2.6,0.6,4.76,1.8,6.49c1.2,1.72,2.69,2.58,4.46,2.58
			c1.62,0,3.05-0.81,4.28-2.43c1.23-1.62,1.85-3.76,1.85-6.44c0-2.39-0.59-4.52-1.78-6.38c-1.19-1.87-2.73-2.8-4.62-2.8
			c-1.76,0-3.19,0.85-4.31,2.55S305.5,25.72,305.5,28.31z"/>
		<path class="st0" d="M327.67,18.49c0.36,0.89,0.58,2.4,0.66,4.52c0.94-1.48,1.98-2.6,3.12-3.34c1.14-0.74,2.39-1.11,3.74-1.11
			c1.03,0,2.02,0.19,2.99,0.58c0.96,0.39,1.7,1.05,2.22,2c0.52,0.94,0.78,2.55,0.78,4.82l-0.14,7.64c0,1.41,0.12,2.29,0.35,2.64
			c0.24,0.36,0.74,0.64,1.51,0.85c0.53,0.15,0.79,0.32,0.79,0.5c0,0.23-0.13,0.34-0.39,0.34c-0.11,0-0.21-0.01-0.32-0.02
			c-0.7-0.14-1.73-0.21-3.09-0.21c-1.23,0-2.54,0.05-3.95,0.16c-0.56,0-0.84-0.13-0.84-0.39c0-0.18,0.15-0.3,0.45-0.36
			c0.83-0.18,1.38-0.37,1.63-0.57c0.26-0.2,0.44-0.46,0.54-0.78c0.11-0.33,0.19-1.42,0.26-3.28c0.07-1.86,0.1-3.37,0.1-4.54
			c0-3.19-0.4-5.31-1.2-6.37c-0.8-1.06-1.8-1.59-3-1.59c-1.77,0-3.24,0.96-4.42,2.87c-1.17,1.92-1.76,5.1-1.76,9.57
			c0,2.03,0.13,3.32,0.4,3.87c0.26,0.55,0.93,0.89,1.99,1.01c0.33,0.03,0.5,0.17,0.5,0.43c0,0.21-0.17,0.32-0.5,0.32l-1.18-0.09
			c-0.42-0.03-1.82-0.05-4.19-0.05l-1.81,0.05c-0.66,0-1-0.12-1-0.36c0-0.26,0.36-0.45,1.08-0.59c0.69-0.14,1.16-0.38,1.4-0.72
			c0.24-0.34,0.4-1.47,0.49-3.4c0.08-1.93,0.12-4.33,0.12-7.21c0-2.68-0.18-4.35-0.54-5s-0.87-1.05-1.52-1.21
			c-0.59-0.14-0.89-0.33-0.89-0.57c0-0.26,0.23-0.39,0.68-0.39l1.84,0.02C324.8,18.56,325.83,18.53,327.67,18.49z"/>
		<path class="st0" d="M355.74,35.02c-0.74,1.07-1.63,1.88-2.66,2.42s-2.19,0.81-3.5,0.81c-1.53,0-2.73-0.41-3.6-1.23
			c-0.87-0.82-1.31-1.89-1.31-3.23c0-1,0.26-1.93,0.78-2.79c0.52-0.86,1.12-1.48,1.79-1.86c0.67-0.38,1.86-0.86,3.55-1.43
			c2.42-0.8,3.88-1.47,4.36-2c0.48-0.53,0.73-1.22,0.73-2.07c0-1.35-0.32-2.4-0.95-3.15c-0.64-0.75-1.54-1.13-2.7-1.13
			c-0.95,0-1.67,0.21-2.16,0.64c-0.48,0.44-0.86,1.3-1.11,2.58c-0.27,1.4-0.87,2.1-1.79,2.1c-0.33,0-0.7-0.17-1.1-0.5
			c-0.4-0.33-0.6-0.82-0.6-1.48c0-1.14,0.63-2.12,1.88-2.96c1.26-0.84,2.98-1.26,5.18-1.26c1.74,0,3.13,0.25,4.17,0.74
			c1.04,0.49,1.69,1.06,1.95,1.69c0.26,0.64,0.4,1.86,0.4,3.68l-0.14,6c0,2.32,0.14,3.97,0.42,4.94c0.28,0.98,0.8,1.47,1.55,1.47
			c0.15,0,0.36-0.02,0.64-0.07l0.39-0.05c0.35,0,0.52,0.13,0.52,0.38c0,0.58-1.49,0.87-4.47,0.87c-0.86,0-1.44-0.2-1.74-0.6
			C355.94,37.13,355.77,36.29,355.74,35.02z M355.74,26.16c-0.45,0.59-1.48,1.31-3.09,2.16c-1.59,0.82-2.73,1.6-3.43,2.34
			c-0.7,0.76-1.04,1.67-1.04,2.72c0,0.95,0.28,1.76,0.85,2.43c0.57,0.67,1.28,1,2.12,1c0.88,0,1.7-0.27,2.47-0.81
			c0.77-0.54,1.34-1.22,1.71-2.06c0.37-0.83,0.56-2.07,0.56-3.7C355.9,29.02,355.85,27.66,355.74,26.16z"/>
		<path class="st0" d="M368.4,6.82c0.04,1.91,0.08,3.81,0.11,5.72l-0.05,14.13l0.09,6.85c0,1.3,0.19,2.24,0.56,2.81
			s1.17,0.92,2.4,1.02c0.48,0.05,0.73,0.19,0.73,0.43c0,0.26-0.2,0.39-0.59,0.39c-0.11,0-0.23-0.01-0.39-0.02
			c-1.56-0.15-3.42-0.23-5.58-0.23c-1.32,0-2.38,0.07-3.18,0.2c-0.17,0.02-0.32,0.03-0.45,0.03c-0.45,0-0.68-0.14-0.68-0.42
			c0-0.26,0.2-0.4,0.61-0.42c1.38-0.01,2.28-0.41,2.71-1.19c0.43-0.78,0.65-2.08,0.65-3.92l-0.07-12.94
			c-0.02-4.16-0.07-6.65-0.17-7.46c-0.1-0.81-0.41-1.49-0.94-2.03c-0.53-0.54-1.27-0.89-2.23-1.04c-0.59-0.09-0.88-0.25-0.88-0.48
			c0-0.26,0.24-0.4,0.73-0.43c2.77-0.18,4.85-0.51,6.24-1H368.4z"/>
	</g>
</g>
<g>
	<g>
		<path class="st0" d="M12.05,62.61c0.01,1.56,0.01,3.66,0.01,6.31l-0.09,6.94c0,0.76,0.35,1.21,1.06,1.33
			c0.23,0.04,0.35,0.12,0.35,0.23c0,0.09-0.04,0.14-0.13,0.16c-0.08,0.02-0.57,0.03-1.45,0.03c-0.45-0.01-0.9-0.01-1.34-0.02
			c-0.02-0.44-0.03-0.76-0.03-0.96c0-0.25,0.01-0.6,0.03-1.06c-0.39,0.73-0.84,1.27-1.34,1.64s-1.06,0.55-1.67,0.55
			c-0.87,0-1.75-0.41-2.64-1.22c-0.89-0.82-1.34-1.92-1.34-3.3c0-1.35,0.42-2.52,1.25-3.51c0.83-0.99,1.86-1.49,3.08-1.49
			c0.61,0,1.14,0.13,1.58,0.39c0.44,0.26,0.8,0.65,1.08,1.17c0.04-0.86,0.07-1.67,0.07-2.42c0-2.32-0.06-3.61-0.17-3.86
			c-0.12-0.25-0.39-0.41-0.82-0.46c-0.27-0.04-0.4-0.11-0.4-0.21c0-0.13,0.17-0.19,0.51-0.19L12.05,62.61z M10.51,72.39
			c0-1.24-0.21-2.16-0.63-2.78c-0.42-0.62-1.05-0.92-1.9-0.92c-0.88,0-1.54,0.36-1.99,1.08c-0.44,0.72-0.67,1.79-0.67,3.23
			c0,1.45,0.26,2.49,0.79,3.11c0.53,0.63,1.1,0.94,1.72,0.94s1.22-0.33,1.8-0.99C10.22,75.4,10.51,74.18,10.51,72.39z"/>
		<path class="st0" d="M16.65,72.46c-0.03,0.37-0.04,0.67-0.04,0.88c0,1.03,0.3,1.91,0.91,2.62s1.36,1.07,2.26,1.07
			c0.88,0,1.69-0.35,2.44-1.05c0.22-0.2,0.36-0.29,0.42-0.29c0.12,0,0.18,0.09,0.19,0.28c-0.28,0.51-0.75,0.94-1.42,1.29
			c-0.67,0.35-1.42,0.52-2.24,0.52c-1.21,0-2.23-0.44-3.07-1.31c-0.84-0.87-1.26-1.97-1.26-3.3c0-1.43,0.46-2.62,1.38-3.57
			c0.92-0.95,1.91-1.43,2.95-1.43c0.98,0,1.87,0.37,2.67,1.12s1.19,1.62,1.19,2.63c0,0.15-0.02,0.27-0.07,0.34s-0.33,0.11-0.84,0.11
			L16.65,72.46z M16.65,71.89c0.95,0.04,1.87,0.07,2.76,0.07l0.58-0.03c0.44-0.01,0.77-0.1,1.01-0.26c0.23-0.16,0.35-0.43,0.35-0.82
			c0-0.61-0.21-1.15-0.63-1.6c-0.42-0.46-0.91-0.68-1.48-0.68c-0.53,0-1.05,0.26-1.57,0.78C17.14,69.86,16.8,70.71,16.65,71.89z"/>
	</g>
</g>
<g>
	<g>
		<path class="st0" d="M49.63,50.16c0.83-0.74,1.31-1.24,1.43-1.5c0.15-0.36,0.37-0.54,0.66-0.54c0.3,0,0.47,0.27,0.5,0.82l0.5,7.92
			c0,0.45-0.02,0.73-0.06,0.83c-0.04,0.1-0.15,0.15-0.33,0.15c-0.24,0-0.5-0.33-0.77-0.98c-1-2.41-2.39-4.39-4.18-5.93
			c-1.8-1.53-3.75-2.29-5.86-2.29c-1.85,0-3.54,0.59-5.09,1.78s-2.74,2.88-3.6,5.09c-0.85,2.2-1.28,4.57-1.28,7.1
			c0,4.3,1.18,7.79,3.55,10.48c2.37,2.69,5.02,4.03,7.94,4.03c1.98,0,3.81-0.63,5.47-1.88s2.92-2.71,3.77-4.36
			c0.23-0.45,0.46-0.68,0.7-0.68c0.33,0,0.5,0.18,0.5,0.54c0,0.44-0.58,1.4-1.73,2.88c-1.15,1.48-2.66,2.69-4.53,3.61
			s-3.88,1.39-6.03,1.39c-2.53,0-4.93-0.64-7.21-1.93c-2.28-1.29-4.08-3.07-5.42-5.34c-1.33-2.27-2-4.93-2-7.99
			c0-3,0.65-5.7,1.94-8.11c1.3-2.41,3.12-4.28,5.47-5.61c2.35-1.33,4.77-2,7.27-2c1.33,0,2.7,0.21,4.09,0.62
			C46.75,48.68,48.18,49.31,49.63,50.16z"/>
		<path class="st0" d="M59.3,58.49l-0.02,5.11l0.05,4.77v3.59l-0.02,2.72c0,1.09,0.18,1.78,0.53,2.08c0.36,0.29,0.89,0.46,1.6,0.49
			c0.83,0.05,1.25,0.22,1.25,0.52c0,0.24-0.16,0.36-0.48,0.36c-0.12,0-0.26-0.01-0.41-0.02c-1.41-0.18-2.72-0.27-3.93-0.27
			c-1.94,0-3.28,0.06-4.02,0.18c-0.15,0.03-0.3,0.05-0.45,0.05c-0.36,0-0.54-0.14-0.54-0.41s0.42-0.46,1.26-0.57
			c0.84-0.11,1.38-0.29,1.61-0.56s0.35-1.02,0.35-2.26l0.16-9.4c0-2.51-0.19-4-0.57-4.46s-1.11-0.71-2.2-0.74
			c-0.36,0-0.54-0.12-0.54-0.36c0-0.14,0.06-0.24,0.18-0.32c0.12-0.08,1.02-0.17,2.7-0.29S58.65,58.51,59.3,58.49z M56.78,47.39
			c0.57,0,1.09,0.21,1.54,0.64s0.68,0.89,0.68,1.38c0,0.59-0.19,1.1-0.56,1.52s-0.88,0.64-1.53,0.64c-0.58,0-1.09-0.19-1.54-0.56
			s-0.68-0.87-0.68-1.51c0-0.62,0.19-1.13,0.58-1.52C55.66,47.59,56.16,47.39,56.78,47.39z"/>
		<path class="st0" d="M65.77,67.39c-0.06,0.77-0.09,1.39-0.09,1.84c0,2.15,0.63,3.97,1.9,5.45c1.27,1.48,2.83,2.23,4.7,2.23
			c1.82,0,3.51-0.73,5.07-2.18c0.46-0.41,0.74-0.61,0.87-0.61c0.24,0,0.37,0.2,0.39,0.59c-0.58,1.06-1.56,1.95-2.95,2.68
			c-1.39,0.73-2.95,1.09-4.66,1.09c-2.51,0-4.64-0.9-6.38-2.71c-1.74-1.81-2.61-4.1-2.61-6.87c0-2.97,0.96-5.44,2.87-7.42
			c1.91-1.98,3.96-2.97,6.14-2.97c2.04,0,3.89,0.78,5.54,2.33s2.48,3.37,2.48,5.46c0,0.32-0.05,0.55-0.15,0.7
			c-0.1,0.15-0.68,0.23-1.74,0.23L65.77,67.39z M65.77,66.21c1.97,0.09,3.88,0.14,5.73,0.14l1.21-0.07
			c0.91-0.03,1.61-0.21,2.09-0.53c0.49-0.33,0.73-0.9,0.73-1.71c0-1.27-0.44-2.38-1.31-3.33c-0.87-0.95-1.9-1.42-3.08-1.42
			c-1.09,0-2.18,0.54-3.27,1.62S66.09,63.76,65.77,66.21z"/>
		<path class="st0" d="M84.52,58.56c0.36,0.89,0.58,2.4,0.66,4.52c0.94-1.48,1.98-2.6,3.12-3.34c1.14-0.74,2.39-1.11,3.73-1.11
			c1.03,0,2.02,0.19,2.99,0.58c0.96,0.39,1.7,1.05,2.23,2c0.52,0.94,0.78,2.55,0.78,4.82l-0.14,7.64c0,1.41,0.12,2.29,0.35,2.64
			c0.23,0.36,0.74,0.64,1.51,0.85c0.53,0.15,0.79,0.32,0.79,0.5c0,0.23-0.13,0.34-0.39,0.34c-0.11,0-0.21-0.01-0.32-0.02
			c-0.7-0.14-1.73-0.21-3.09-0.21c-1.23,0-2.54,0.05-3.95,0.16c-0.56,0-0.84-0.13-0.84-0.39c0-0.18,0.15-0.3,0.45-0.36
			c0.83-0.18,1.38-0.37,1.63-0.57c0.26-0.2,0.44-0.46,0.54-0.78c0.11-0.33,0.19-1.42,0.26-3.28c0.07-1.86,0.1-3.37,0.1-4.54
			c0-3.19-0.4-5.31-1.2-6.37s-1.8-1.59-3-1.59c-1.77,0-3.24,0.96-4.42,2.87c-1.17,1.92-1.76,5.1-1.76,9.57
			c0,2.03,0.13,3.32,0.4,3.87c0.26,0.55,0.93,0.89,1.99,1.01c0.33,0.03,0.5,0.17,0.5,0.43c0,0.21-0.17,0.32-0.5,0.32l-1.18-0.09
			C85.38,78.01,83.98,78,81.61,78l-1.81,0.05c-0.66,0-1-0.12-1-0.36c0-0.26,0.36-0.45,1.08-0.59c0.69-0.14,1.16-0.38,1.4-0.72
			c0.24-0.34,0.4-1.47,0.48-3.4c0.08-1.93,0.12-4.33,0.12-7.21c0-2.68-0.18-4.35-0.54-5s-0.87-1.05-1.52-1.21
			c-0.59-0.14-0.89-0.33-0.89-0.57c0-0.26,0.23-0.39,0.68-0.39l1.84,0.02C81.66,58.63,82.68,58.61,84.52,58.56z"/>
		<path class="st0" d="M100.46,68.84c0-2.77,0.89-5.2,2.67-7.27c1.78-2.08,3.95-3.11,6.5-3.11c1.65,0,3.23,0.41,4.75,1.21
			c1.51,0.81,2.27,1.82,2.27,3.03c0,0.47-0.14,0.88-0.43,1.24c-0.29,0.36-0.62,0.53-1,0.53c-0.85,0-1.5-0.68-1.95-2.04
			c-0.7-2.09-1.92-3.13-3.66-3.13c-1.73,0-3.04,0.75-3.94,2.24c-0.9,1.49-1.35,3.45-1.35,5.88c0,2.85,0.63,5.18,1.88,6.98
			c1.26,1.8,2.77,2.71,4.54,2.71c1.17,0,2.29-0.45,3.38-1.36c1.07-0.89,1.7-1.98,1.88-3.27c0.08-0.44,0.24-0.66,0.5-0.66
			c0.27,0,0.41,0.14,0.41,0.41c0,1.48-0.69,2.88-2.06,4.18c-1.37,1.3-3.21,1.95-5.51,1.95c-2.51,0-4.62-0.96-6.33-2.86
			C101.32,73.56,100.46,71.35,100.46,68.84z"/>
		<path class="st0" d="M123.25,58.49l-0.02,5.11l0.05,4.77v3.59l-0.02,2.72c0,1.09,0.18,1.78,0.53,2.08
			c0.36,0.29,0.89,0.46,1.6,0.49c0.83,0.05,1.25,0.22,1.25,0.52c0,0.24-0.16,0.36-0.48,0.36c-0.12,0-0.26-0.01-0.41-0.02
			c-1.41-0.18-2.72-0.27-3.93-0.27c-1.94,0-3.28,0.06-4.02,0.18c-0.15,0.03-0.3,0.05-0.45,0.05c-0.36,0-0.54-0.14-0.54-0.41
			s0.42-0.46,1.26-0.57c0.84-0.11,1.38-0.29,1.61-0.56s0.35-1.02,0.35-2.26l0.16-9.4c0-2.51-0.19-4-0.57-4.46s-1.11-0.71-2.2-0.74
			c-0.36,0-0.54-0.12-0.54-0.36c0-0.14,0.06-0.24,0.18-0.32c0.12-0.08,1.02-0.17,2.7-0.29S122.6,58.51,123.25,58.49z M120.73,47.39
			c0.57,0,1.09,0.21,1.54,0.64s0.68,0.89,0.68,1.38c0,0.59-0.19,1.1-0.56,1.52s-0.88,0.64-1.53,0.64c-0.58,0-1.09-0.19-1.54-0.56
			s-0.68-0.87-0.68-1.51c0-0.62,0.19-1.13,0.58-1.52C119.61,47.59,120.11,47.39,120.73,47.39z"/>
		<path class="st0" d="M137.6,75.09c-0.74,1.07-1.63,1.88-2.66,2.42c-1.03,0.54-2.2,0.81-3.5,0.81c-1.53,0-2.73-0.41-3.6-1.23
			c-0.87-0.82-1.31-1.89-1.31-3.23c0-1,0.26-1.93,0.78-2.79c0.52-0.86,1.12-1.48,1.79-1.86s1.86-0.86,3.55-1.43
			c2.42-0.8,3.87-1.47,4.36-2c0.48-0.53,0.73-1.22,0.73-2.07c0-1.35-0.32-2.4-0.95-3.15c-0.64-0.75-1.54-1.13-2.7-1.13
			c-0.95,0-1.67,0.21-2.16,0.64c-0.48,0.44-0.86,1.3-1.11,2.58c-0.27,1.4-0.87,2.1-1.79,2.1c-0.33,0-0.7-0.17-1.1-0.5
			c-0.4-0.33-0.6-0.82-0.6-1.48c0-1.14,0.63-2.12,1.88-2.96c1.26-0.84,2.98-1.26,5.18-1.26c1.74,0,3.13,0.25,4.17,0.74
			c1.04,0.49,1.69,1.06,1.95,1.69c0.26,0.64,0.4,1.86,0.4,3.68l-0.14,6c0,2.32,0.14,3.97,0.42,4.94s0.8,1.47,1.56,1.47
			c0.15,0,0.36-0.02,0.64-0.07l0.39-0.05c0.35,0,0.52,0.13,0.52,0.38c0,0.58-1.49,0.87-4.47,0.87c-0.86,0-1.44-0.2-1.74-0.6
			C137.79,77.2,137.63,76.36,137.6,75.09z M137.6,66.23c-0.45,0.59-1.48,1.31-3.09,2.16c-1.59,0.82-2.73,1.6-3.43,2.34
			c-0.7,0.76-1.04,1.67-1.04,2.72c0,0.95,0.28,1.76,0.85,2.43c0.57,0.67,1.28,1,2.12,1c0.88,0,1.7-0.27,2.48-0.81
			s1.34-1.22,1.71-2.06c0.37-0.83,0.56-2.07,0.56-3.7C137.76,69.1,137.71,67.73,137.6,66.23z"/>
		<path class="st0" d="M157.87,71.99c0,1.75-0.65,3.26-1.95,4.52c-1.3,1.26-2.84,1.89-4.62,1.89c-1.06,0-2.32-0.34-3.79-1.02
			c-0.8-0.36-1.28-0.54-1.43-0.54c-0.26,0-0.48,0.16-0.68,0.48c-0.25,0.42-0.48,0.64-0.7,0.64c-0.19,0-0.3-0.22-0.35-0.65
			c-0.05-0.43-0.08-1.41-0.09-2.94c-0.02-1.32-0.04-2.16-0.07-2.54c0-0.56,0.15-0.84,0.44-0.84c0.17,0,0.3,0.14,0.4,0.43
			c0.59,1.73,1.41,3.19,2.47,4.39c1.06,1.2,2.31,1.8,3.74,1.8c1.01,0,1.91-0.31,2.69-0.94s1.18-1.48,1.18-2.55
			c0-1.66-1.44-3.14-4.33-4.43c-1.98-0.89-3.3-1.53-3.96-1.94c-0.67-0.41-1.19-0.96-1.56-1.66c-0.38-0.7-0.57-1.46-0.57-2.27
			c0-1.56,0.59-2.87,1.77-3.92s2.62-1.58,4.3-1.58c1.24,0,2.61,0.39,4.1,1.16c0.24,0.12,0.45,0.18,0.64,0.18
			c0.15,0,0.32-0.12,0.5-0.38c0.18-0.23,0.32-0.35,0.42-0.35c0.13,0,0.24,0.06,0.31,0.17c0.07,0.11,0.16,0.78,0.25,2.01
			s0.14,2.23,0.14,3.02c0,0.49-0.13,0.73-0.39,0.73c-0.23,0-0.41-0.22-0.54-0.66c-0.12-0.41-0.48-1.18-1.09-2.33
			s-1.27-1.88-1.99-2.19s-1.43-0.48-2.12-0.48c-1.09,0-1.98,0.26-2.68,0.79c-0.7,0.53-1.04,1.22-1.04,2.06c0,0.53,0.14,1,0.43,1.43
			s0.56,0.74,0.81,0.95c0.25,0.21,1.69,0.91,4.33,2.1c1.63,0.74,2.71,1.31,3.22,1.71c0.51,0.4,0.95,0.94,1.29,1.62
			C157.7,70.54,157.87,71.25,157.87,71.99z"/>
	</g>
</g>
<g>
	<g>
		<path class="st0" d="M172.86,62.61c0.01,1.56,0.01,3.66,0.01,6.31l-0.09,6.94c0,0.76,0.35,1.21,1.06,1.33
			c0.23,0.04,0.35,0.12,0.35,0.23c0,0.09-0.04,0.14-0.13,0.16c-0.08,0.02-0.57,0.03-1.45,0.03c-0.45-0.01-0.9-0.01-1.34-0.02
			c-0.02-0.44-0.03-0.76-0.03-0.96c0-0.25,0.01-0.6,0.03-1.06c-0.39,0.73-0.84,1.27-1.34,1.64s-1.06,0.55-1.67,0.55
			c-0.87,0-1.75-0.41-2.64-1.22c-0.89-0.82-1.34-1.92-1.34-3.3c0-1.35,0.42-2.52,1.25-3.51c0.83-0.99,1.86-1.49,3.08-1.49
			c0.61,0,1.14,0.13,1.58,0.39c0.44,0.26,0.8,0.65,1.08,1.17c0.04-0.86,0.07-1.67,0.07-2.42c0-2.32-0.06-3.61-0.17-3.86
			c-0.12-0.25-0.39-0.41-0.82-0.46c-0.27-0.04-0.4-0.11-0.4-0.21c0-0.13,0.17-0.19,0.51-0.19L172.86,62.61z M171.32,72.39
			c0-1.24-0.21-2.16-0.63-2.78c-0.42-0.62-1.05-0.92-1.9-0.92c-0.88,0-1.54,0.36-1.99,1.08c-0.44,0.72-0.67,1.79-0.67,3.23
			c0,1.45,0.26,2.49,0.79,3.11c0.53,0.63,1.1,0.94,1.72,0.94s1.22-0.33,1.8-0.99C171.03,75.4,171.32,74.18,171.32,72.39z"/>
		<path class="st0" d="M176.01,72.46c-0.03,0.37-0.04,0.67-0.04,0.88c0,1.03,0.3,1.91,0.91,2.62s1.36,1.07,2.26,1.07
			c0.88,0,1.69-0.35,2.44-1.05c0.22-0.2,0.36-0.29,0.42-0.29c0.12,0,0.18,0.09,0.19,0.28c-0.28,0.51-0.75,0.94-1.42,1.29
			c-0.67,0.35-1.42,0.52-2.24,0.52c-1.21,0-2.23-0.44-3.07-1.31c-0.84-0.87-1.26-1.97-1.26-3.3c0-1.43,0.46-2.62,1.38-3.57
			c0.92-0.95,1.91-1.43,2.95-1.43c0.98,0,1.87,0.37,2.67,1.12s1.19,1.62,1.19,2.63c0,0.15-0.02,0.27-0.07,0.34s-0.33,0.11-0.84,0.11
			L176.01,72.46z M176.01,71.89c0.95,0.04,1.87,0.07,2.76,0.07l0.58-0.03c0.44-0.01,0.77-0.1,1.01-0.26
			c0.23-0.16,0.35-0.43,0.35-0.82c0-0.61-0.21-1.15-0.63-1.6c-0.42-0.46-0.91-0.68-1.48-0.68c-0.53,0-1.05,0.26-1.57,0.78
			C176.5,69.86,176.16,70.71,176.01,71.89z"/>
	</g>
</g>
<g>
	<g>
		<path class="st0" d="M189.86,62.6c0.02,0.92,0.04,1.83,0.05,2.75l-0.02,6.8l0.04,3.3c0,0.63,0.09,1.08,0.27,1.35
			c0.18,0.28,0.56,0.44,1.15,0.49c0.23,0.02,0.35,0.09,0.35,0.21c0,0.12-0.09,0.19-0.28,0.19c-0.05,0-0.11,0-0.19-0.01
			c-0.75-0.07-1.65-0.11-2.69-0.11c-0.63,0-1.14,0.03-1.53,0.1c-0.08,0.01-0.15,0.01-0.22,0.01c-0.22,0-0.33-0.07-0.33-0.2
			c0-0.13,0.1-0.19,0.29-0.2c0.66-0.01,1.1-0.2,1.31-0.57c0.21-0.38,0.31-1,0.31-1.88l-0.03-6.23c-0.01-2-0.03-3.2-0.08-3.59
			s-0.2-0.72-0.45-0.98c-0.26-0.26-0.61-0.43-1.07-0.5c-0.28-0.04-0.43-0.12-0.43-0.23c0-0.12,0.12-0.19,0.35-0.21
			c1.33-0.09,2.33-0.25,3-0.48H189.86z"/>
		<path class="st0" d="M197.14,76.16c-0.36,0.52-0.78,0.91-1.28,1.16c-0.5,0.26-1.06,0.39-1.68,0.39c-0.74,0-1.31-0.2-1.73-0.59
			c-0.42-0.39-0.63-0.91-0.63-1.55c0-0.48,0.13-0.93,0.38-1.34c0.25-0.42,0.54-0.71,0.86-0.9c0.32-0.18,0.89-0.41,1.71-0.69
			c1.16-0.39,1.86-0.71,2.1-0.96c0.23-0.25,0.35-0.59,0.35-1c0-0.65-0.15-1.16-0.46-1.52c-0.31-0.36-0.74-0.54-1.3-0.54
			c-0.46,0-0.8,0.1-1.04,0.31c-0.23,0.21-0.41,0.63-0.54,1.24c-0.13,0.67-0.42,1.01-0.86,1.01c-0.16,0-0.34-0.08-0.53-0.24
			s-0.29-0.4-0.29-0.71c0-0.55,0.3-1.02,0.91-1.43s1.43-0.61,2.49-0.61c0.84,0,1.51,0.12,2,0.36c0.5,0.24,0.81,0.51,0.94,0.81
			s0.19,0.9,0.19,1.77l-0.07,2.89c0,1.12,0.07,1.91,0.2,2.38s0.38,0.71,0.75,0.71c0.07,0,0.17-0.01,0.31-0.03l0.19-0.02
			c0.17,0,0.25,0.06,0.25,0.18c0,0.28-0.72,0.42-2.15,0.42c-0.41,0-0.69-0.1-0.83-0.29C197.23,77.18,197.16,76.77,197.14,76.16z
			 M197.14,71.9c-0.22,0.28-0.71,0.63-1.48,1.04c-0.76,0.39-1.31,0.77-1.65,1.12c-0.33,0.36-0.5,0.8-0.5,1.31
			c0,0.46,0.14,0.85,0.41,1.17c0.27,0.32,0.61,0.48,1.02,0.48c0.42,0,0.82-0.13,1.19-0.39c0.37-0.26,0.65-0.59,0.82-0.99
			c0.18-0.4,0.27-0.99,0.27-1.78C197.22,73.28,197.19,72.62,197.14,71.9z"/>
	</g>
</g>
<g>
	<g>
		<path class="st0" d="M227.95,48.11c0.44,1.7,0.87,4.07,1.29,7.13c-0.07,0.12-0.16,0.18-0.24,0.18c-0.1,0-0.21-0.06-0.34-0.18
			c-1.04-1.68-2.04-2.96-3-3.84s-1.91-1.5-2.88-1.87c-0.96-0.37-2.62-0.56-4.96-0.56c-2.21,0-3.96,0.13-5.25,0.39
			c-0.12,0.15-0.18,0.43-0.18,0.84c0,0.11-0.01,0.29-0.04,0.57c-0.15,1.21-0.23,4.49-0.23,9.84c0,0.23,0.02,0.54,0.05,0.95
			c1.15,0.05,1.94,0.07,2.36,0.07c1.91,0,3.29-0.29,4.15-0.85c0.86-0.57,1.6-1.8,2.24-3.68c0.11-0.32,0.26-0.48,0.45-0.48
			c0.29,0,0.43,0.22,0.43,0.66l-0.09,0.91c-0.12,1.2-0.18,2.43-0.18,3.71c0,2.06,0.04,3.92,0.11,5.57c0,0.52-0.14,0.77-0.42,0.77
			c-0.21,0-0.34-0.18-0.42-0.54c-0.32-1.79-0.99-3.07-2-3.86c-1.02-0.79-3.23-1.18-6.63-1.18c-0.05,1.11-0.07,2.89-0.07,5.36
			c0,3.19,0.11,5.22,0.34,6.08c0.23,0.86,0.77,1.55,1.64,2.06s2.33,0.76,4.38,0.76c5.89,0,9.69-2.03,11.41-6.08
			c0.21-0.5,0.43-0.75,0.65-0.75c0.24,0,0.36,0.17,0.36,0.5c0,0.18-0.04,0.38-0.11,0.59c-0.09,0.29-0.31,1.36-0.66,3.22
			c-0.08,0.39-0.36,1.57-0.86,3.54l-9.51-0.02c-1.36,0-3.36-0.06-6.01-0.17c-2.64-0.11-4.98-0.17-7.02-0.18s-3.1-0.05-3.19-0.12
			s-0.14-0.16-0.14-0.25c0-0.3,0.25-0.45,0.75-0.45c1.68,0,2.79-0.45,3.32-1.34c0.53-0.89,0.79-3.06,0.79-6.51l-0.02-4.65l0.07-4.36
			c0-0.88-0.05-2.54-0.15-4.98c-0.1-2.44-0.19-3.84-0.27-4.19s-0.32-0.69-0.7-1.03s-1.24-0.68-2.55-1.03
			c-0.39-0.11-0.59-0.27-0.59-0.5c0-0.27,0.26-0.41,0.79-0.41l4.63,0.25c1.63,0.08,5.65,0.11,12.06,0.11
			C225.71,48.09,227.86,48.1,227.95,48.11z"/>
		<path class="st0" d="M249.02,46.48c0.01,3.24,0.02,7.61,0.02,13.12l-0.18,14.42c0,1.59,0.73,2.51,2.2,2.77
			c0.48,0.09,0.73,0.25,0.73,0.48c0,0.18-0.09,0.3-0.26,0.34s-1.18,0.07-3.01,0.07c-0.94-0.02-1.87-0.03-2.79-0.05
			c-0.05-0.92-0.07-1.59-0.07-2c0-0.51,0.02-1.25,0.07-2.2c-0.82,1.51-1.75,2.65-2.79,3.41c-1.04,0.76-2.2,1.14-3.47,1.14
			c-1.8,0-3.63-0.85-5.48-2.54c-1.85-1.7-2.78-3.98-2.78-6.86c0-2.8,0.87-5.23,2.6-7.29c1.73-2.06,3.86-3.09,6.39-3.09
			c1.27,0,2.37,0.27,3.29,0.81c0.92,0.54,1.67,1.35,2.25,2.44c0.09-1.78,0.14-3.46,0.14-5.03c0-4.82-0.12-7.5-0.36-8.02
			c-0.24-0.53-0.81-0.85-1.7-0.95c-0.56-0.08-0.84-0.23-0.84-0.44c0-0.26,0.36-0.4,1.07-0.4L249.02,46.48z M245.81,66.82
			c0-2.57-0.44-4.5-1.31-5.78c-0.87-1.28-2.18-1.92-3.94-1.92c-1.83,0-3.21,0.75-4.13,2.24c-0.92,1.49-1.38,3.73-1.38,6.71
			c0,3.01,0.55,5.17,1.65,6.47c1.1,1.3,2.29,1.95,3.58,1.95c1.29,0,2.53-0.68,3.73-2.05C245.21,73.07,245.81,70.53,245.81,66.82z"/>
		<path class="st0" d="M257.26,58.49c0.08,0.98,0.14,3.83,0.2,8.54c0.03,2.94,0.11,4.89,0.23,5.87c0.12,0.98,0.5,1.78,1.15,2.42
			s1.38,0.95,2.21,0.95c1.09,0,2.18-0.51,3.28-1.52s1.77-2.1,2.03-3.26c0.26-1.16,0.39-3.82,0.39-7.98c0-1.94-0.12-3.11-0.36-3.52
			s-0.83-0.64-1.77-0.7c-0.35-0.01-0.52-0.14-0.52-0.39c0-0.17,0.05-0.28,0.16-0.33c0.11-0.05,0.45-0.08,1.02-0.08h4.54
			c0.14,1.65,0.2,3.5,0.2,5.54l-0.18,8.54c0,1.76,0.15,2.86,0.44,3.31c0.3,0.45,0.76,0.71,1.4,0.77c0.39,0.06,0.59,0.21,0.59,0.45
			c0,0.27-0.39,0.41-1.16,0.41h-3.59c-0.62,0-0.93-0.2-0.93-0.61c0-0.12,0.01-0.26,0.02-0.41c0.04-0.45,0.07-0.92,0.07-1.38
			c0-0.39-0.02-0.97-0.07-1.73c-1.15,1.48-2.35,2.6-3.59,3.34c-1.24,0.74-2.54,1.11-3.88,1.11c-1.15,0-2.12-0.28-2.89-0.84
			c-0.78-0.56-1.29-1.24-1.54-2.03c-0.25-0.79-0.42-2.77-0.51-5.94s-0.14-5.65-0.14-7.45c0-0.98-0.05-1.6-0.16-1.84
			c-0.11-0.24-0.44-0.38-1-0.41c-0.61-0.05-0.91-0.2-0.91-0.45c0-0.26,0.36-0.39,1.09-0.39H257.26z"/>
		<path class="st0" d="M272.42,68.4c0-2.77,0.89-5.2,2.67-7.27c1.78-2.08,3.95-3.11,6.51-3.11c1.65,0,3.23,0.41,4.75,1.21
			c1.51,0.81,2.27,1.82,2.27,3.03c0,0.47-0.14,0.88-0.43,1.24c-0.29,0.36-0.62,0.53-1,0.53c-0.85,0-1.5-0.68-1.95-2.04
			c-0.7-2.09-1.92-3.13-3.66-3.13c-1.73,0-3.04,0.75-3.94,2.24s-1.35,3.45-1.35,5.88c0,2.85,0.63,5.18,1.88,6.98
			c1.26,1.8,2.77,2.71,4.54,2.71c1.17,0,2.29-0.45,3.38-1.36c1.07-0.89,1.7-1.98,1.88-3.27c0.08-0.44,0.24-0.66,0.5-0.66
			c0.27,0,0.41,0.14,0.41,0.41c0,1.48-0.69,2.88-2.05,4.18c-1.37,1.3-3.21,1.95-5.51,1.95c-2.51,0-4.62-0.96-6.33-2.86
			C273.27,73.13,272.42,70.92,272.42,68.4z"/>
		<path class="st0" d="M300.48,74.65c-0.74,1.07-1.63,1.88-2.66,2.42s-2.19,0.81-3.5,0.81c-1.53,0-2.73-0.41-3.6-1.23
			c-0.87-0.82-1.31-1.89-1.31-3.23c0-1,0.26-1.93,0.78-2.79c0.52-0.86,1.12-1.48,1.79-1.86c0.67-0.38,1.86-0.86,3.55-1.43
			c2.42-0.8,3.88-1.47,4.36-2c0.48-0.53,0.73-1.22,0.73-2.07c0-1.35-0.32-2.4-0.95-3.15c-0.64-0.75-1.54-1.13-2.7-1.13
			c-0.95,0-1.67,0.21-2.16,0.64c-0.48,0.44-0.86,1.3-1.11,2.58c-0.27,1.4-0.87,2.1-1.79,2.1c-0.33,0-0.7-0.17-1.1-0.5
			c-0.4-0.33-0.6-0.82-0.6-1.48c0-1.14,0.63-2.12,1.88-2.96c1.26-0.84,2.98-1.26,5.18-1.26c1.74,0,3.13,0.25,4.17,0.74
			c1.04,0.49,1.69,1.06,1.95,1.69c0.26,0.64,0.4,1.86,0.4,3.68l-0.14,6c0,2.32,0.14,3.97,0.42,4.94c0.28,0.98,0.8,1.47,1.55,1.47
			c0.15,0,0.36-0.02,0.64-0.07l0.39-0.05c0.35,0,0.52,0.13,0.52,0.38c0,0.58-1.49,0.87-4.47,0.87c-0.86,0-1.44-0.2-1.74-0.6
			C300.67,76.76,300.51,75.93,300.48,74.65z M300.48,65.8c-0.45,0.59-1.48,1.31-3.09,2.16c-1.59,0.82-2.73,1.6-3.43,2.34
			c-0.7,0.76-1.04,1.67-1.04,2.72c0,0.95,0.28,1.76,0.85,2.43c0.57,0.67,1.28,1,2.12,1c0.88,0,1.7-0.27,2.47-0.81
			c0.77-0.54,1.34-1.22,1.71-2.06c0.37-0.83,0.56-2.07,0.56-3.7C300.64,68.66,300.59,67.3,300.48,65.8z"/>
		<path class="st0" d="M306.09,68.4c0-2.77,0.89-5.2,2.67-7.27c1.78-2.08,3.95-3.11,6.51-3.11c1.65,0,3.23,0.41,4.75,1.21
			c1.51,0.81,2.27,1.82,2.27,3.03c0,0.47-0.14,0.88-0.43,1.24c-0.29,0.36-0.62,0.53-1,0.53c-0.85,0-1.5-0.68-1.95-2.04
			c-0.7-2.09-1.92-3.13-3.66-3.13c-1.73,0-3.04,0.75-3.94,2.24s-1.35,3.45-1.35,5.88c0,2.85,0.63,5.18,1.88,6.98
			c1.26,1.8,2.77,2.71,4.54,2.71c1.17,0,2.29-0.45,3.38-1.36c1.07-0.89,1.7-1.98,1.88-3.27c0.08-0.44,0.24-0.66,0.5-0.66
			c0.27,0,0.41,0.14,0.41,0.41c0,1.48-0.69,2.88-2.05,4.18c-1.37,1.3-3.21,1.95-5.51,1.95c-2.51,0-4.62-0.96-6.33-2.86
			C306.94,73.13,306.09,70.92,306.09,68.4z"/>
		<path class="st0" d="M328.88,58.06l-0.02,5.11l0.05,4.77v3.59l-0.02,2.72c0,1.09,0.18,1.78,0.53,2.08
			c0.36,0.29,0.89,0.46,1.6,0.49c0.83,0.05,1.25,0.22,1.25,0.52c0,0.24-0.16,0.36-0.48,0.36c-0.12,0-0.26-0.01-0.41-0.02
			c-1.41-0.18-2.72-0.27-3.93-0.27c-1.94,0-3.28,0.06-4.02,0.18c-0.15,0.03-0.3,0.05-0.45,0.05c-0.36,0-0.54-0.14-0.54-0.41
			s0.42-0.46,1.26-0.57s1.38-0.29,1.61-0.56s0.35-1.02,0.35-2.26l0.16-9.4c0-2.51-0.19-4-0.57-4.46c-0.38-0.46-1.11-0.71-2.2-0.74
			c-0.36,0-0.54-0.12-0.54-0.36c0-0.14,0.06-0.24,0.18-0.32c0.12-0.08,1.02-0.17,2.7-0.29C327.06,58.14,328.23,58.07,328.88,58.06z
			 M326.36,46.95c0.58,0,1.09,0.21,1.54,0.64s0.68,0.89,0.68,1.38c0,0.59-0.19,1.1-0.56,1.52c-0.37,0.42-0.88,0.64-1.53,0.64
			c-0.58,0-1.09-0.19-1.54-0.56s-0.68-0.87-0.68-1.51c0-0.62,0.19-1.13,0.58-1.52C325.23,47.15,325.74,46.95,326.36,46.95z"/>
		<path class="st0" d="M331.58,68.08c0-2.66,0.96-5,2.88-7.03c1.92-2.03,4.28-3.04,7.08-3.04c2.63,0,4.9,0.91,6.8,2.72
			s2.85,4.08,2.85,6.8c0,2.75-1,5.17-3,7.25s-4.33,3.12-6.99,3.12c-2.63,0-4.9-0.96-6.79-2.87
			C332.52,73.12,331.58,70.8,331.58,68.08z M335.26,67.94c0,2.6,0.6,4.76,1.8,6.49c1.2,1.72,2.69,2.58,4.46,2.58
			c1.62,0,3.05-0.81,4.28-2.43c1.23-1.62,1.85-3.76,1.85-6.44c0-2.39-0.59-4.52-1.78-6.38c-1.19-1.87-2.73-2.8-4.62-2.8
			c-1.76,0-3.19,0.85-4.31,2.55S335.26,65.36,335.26,67.94z M338.8,55.15l3.5-4.9c0.68-0.95,1.23-1.6,1.65-1.95
			c0.42-0.35,0.89-0.52,1.42-0.52c0.97,0,1.45,0.48,1.45,1.43c0,0.77-0.74,1.72-2.22,2.84l-5.36,4.09
			c-0.36,0.27-0.61,0.41-0.75,0.41c-0.21,0-0.32-0.1-0.32-0.3C338.16,56.1,338.37,55.74,338.8,55.15z"/>
		<path class="st0" d="M357.01,58.13c0.36,0.89,0.58,2.4,0.66,4.52c0.94-1.48,1.98-2.6,3.12-3.34c1.14-0.74,2.39-1.11,3.74-1.11
			c1.03,0,2.02,0.19,2.99,0.58c0.96,0.39,1.7,1.05,2.22,2c0.52,0.94,0.78,2.55,0.78,4.82l-0.14,7.64c0,1.41,0.12,2.29,0.35,2.64
			c0.24,0.36,0.74,0.64,1.51,0.85c0.53,0.15,0.79,0.32,0.79,0.5c0,0.23-0.13,0.34-0.39,0.34c-0.11,0-0.21-0.01-0.32-0.02
			c-0.7-0.14-1.73-0.21-3.09-0.21c-1.23,0-2.54,0.05-3.95,0.16c-0.56,0-0.84-0.13-0.84-0.39c0-0.18,0.15-0.3,0.45-0.36
			c0.83-0.18,1.38-0.37,1.63-0.57c0.26-0.2,0.44-0.46,0.54-0.78c0.11-0.33,0.19-1.42,0.26-3.28s0.1-3.37,0.1-4.54
			c0-3.19-0.4-5.31-1.2-6.37c-0.8-1.06-1.8-1.59-3-1.59c-1.77,0-3.24,0.96-4.42,2.87c-1.17,1.92-1.76,5.1-1.76,9.57
			c0,2.03,0.13,3.32,0.4,3.87c0.26,0.55,0.93,0.89,1.99,1.01c0.33,0.03,0.5,0.17,0.5,0.43c0,0.21-0.17,0.32-0.5,0.32l-1.18-0.09
			c-0.42-0.03-1.82-0.05-4.19-0.05l-1.81,0.05c-0.66,0-1-0.12-1-0.36c0-0.26,0.36-0.45,1.08-0.59c0.69-0.14,1.16-0.38,1.4-0.72
			c0.24-0.34,0.4-1.47,0.49-3.4c0.08-1.93,0.12-4.33,0.12-7.21c0-2.68-0.18-4.35-0.54-5s-0.87-1.05-1.52-1.21
			c-0.59-0.14-0.89-0.33-0.89-0.57c0-0.26,0.23-0.39,0.68-0.39l1.84,0.02C354.14,58.19,355.16,58.17,357.01,58.13z"/>
	</g>
</g>
<g>
	<g>
		<path class="st0" d="M22.69,89.26c-1.86-0.09-3.17-0.14-3.94-0.14c-5.15,0-8.89,1.08-11.2,3.23s-3.66,4.07-4.04,5.74
			c-0.12,0.6-0.44,0.9-0.96,0.9c-0.24,0-0.46-0.11-0.67-0.34C2,95.8,2.46,91.97,3.27,87.15c1.14-0.02,1.87-0.04,2.18-0.04
			c1.86,0,4.35,0.1,7.47,0.29c3.36,0.19,8.51,0.29,15.45,0.29c7.1,0,11.73-0.08,13.88-0.25c1.96-0.19,4.64-0.29,8.05-0.29
			c0.29,1.72,0.48,3.5,0.57,5.36c0.14,2.12,0.29,3.61,0.43,4.47c0.02,0.19,0.04,0.39,0.04,0.61c0,0.57-0.25,0.86-0.75,0.86
			c-0.31,0-0.56-0.1-0.76-0.3s-0.66-0.88-1.38-2.02c-1.24-1.93-2.53-3.39-3.86-4.38c-1.34-0.99-2.83-1.63-4.47-1.91
			c-1.65-0.29-4.97-0.48-9.98-0.57c-0.29,3.6-0.43,7.71-0.43,12.34c0,15.31,0.33,24.33,0.98,27.07c0.66,2.74,3,4.11,7.03,4.11
			c0.98,0,1.47,0.2,1.47,0.61c0,0.48-0.46,0.72-1.4,0.72H15.79c-0.57,0-0.86-0.23-0.86-0.68c0-0.45,0.56-0.68,1.68-0.68
			c1.88,0,3.4-0.53,4.56-1.59c1.16-1.06,1.82-2.5,2-4.31c0.18-1.81,0.27-7.05,0.27-15.7C23.44,103.76,23.19,96.46,22.69,89.26z"/>
		<path class="st0" d="M57.13,117.41c-0.1,1.22-0.14,2.18-0.14,2.9c0,3.39,1,6.25,2.99,8.58c2,2.34,4.46,3.5,7.4,3.5
			c2.87,0,5.53-1.14,7.99-3.43c0.72-0.64,1.17-0.97,1.36-0.97c0.38,0,0.58,0.31,0.61,0.93c-0.91,1.67-2.46,3.08-4.65,4.22
			c-2.19,1.14-4.64,1.72-7.33,1.72c-3.96,0-7.31-1.42-10.05-4.27c-2.74-2.85-4.11-6.46-4.11-10.82c0-4.67,1.51-8.57,4.52-11.69
			c3.02-3.12,6.24-4.68,9.67-4.68c3.22,0,6.13,1.22,8.73,3.67s3.9,5.31,3.9,8.6c0,0.5-0.08,0.87-0.23,1.11
			c-0.16,0.24-1.07,0.36-2.74,0.36L57.13,117.41z M57.13,115.55c3.11,0.14,6.12,0.21,9.03,0.21l1.9-0.11
			c1.43-0.05,2.53-0.33,3.3-0.84c0.76-0.51,1.15-1.41,1.15-2.7c0-2-0.69-3.75-2.06-5.24c-1.37-1.49-2.99-2.24-4.86-2.24
			c-1.72,0-3.44,0.85-5.14,2.56C58.74,108.9,57.63,111.68,57.13,115.55z"/>
		<path class="st0" d="M92.18,103.35c0.29,0.91,0.43,1.75,0.43,2.52c-0.02,1.13-0.06,2.27-0.11,3.42c1.76-1.98,3.55-3.46,5.36-4.44
			c1.81-0.98,3.65-1.47,5.51-1.47c1.69,0,3.27,0.41,4.72,1.22c1.45,0.81,2.78,2.03,3.97,3.65c1.69-1.66,3.4-2.9,5.13-3.71
			c1.73-0.82,3.46-1.23,5.2-1.23c2.31,0,4.24,0.48,5.78,1.43c1.54,0.96,2.5,2.01,2.88,3.17c0.38,1.16,0.57,3.27,0.57,6.33
			l-0.18,13.48c0,1.96,0.2,3.29,0.59,4c0.39,0.71,1.2,1.06,2.41,1.06c0.81,0,1.22,0.21,1.22,0.64c0,0.45-0.66,0.68-1.97,0.68h-10.98
			c-1.07,0-1.61-0.21-1.61-0.64c0-0.38,0.31-0.6,0.93-0.64c1.95-0.09,3.17-0.54,3.65-1.34c0.48-0.8,0.72-5.1,0.72-12.89
			c0-3.65-0.14-6.28-0.41-7.89c-0.27-1.61-0.92-2.93-1.95-3.95c-1.03-1.02-2.29-1.54-3.79-1.54c-1.31,0-2.59,0.4-3.83,1.19
			s-2.44,2-3.61,3.61c-0.95,3.13-1.43,8.63-1.43,16.51c0,2.77,0.22,4.52,0.66,5.25c0.44,0.73,1.41,1.09,2.91,1.09h0.61
			c0.76,0,1.14,0.2,1.14,0.61c0,0.43-0.48,0.64-1.43,0.64h-12.05c-1.22,0-1.82-0.23-1.82-0.68c0-0.45,0.35-0.68,1.04-0.68
			c1.45,0,2.44-0.3,2.95-0.91s0.86-2.35,1.04-5.24c0.18-2.88,0.27-5.73,0.27-8.55c0-5.08-0.5-8.42-1.48-10.01
			c-0.99-1.6-2.43-2.4-4.31-2.4c-1.62,0-3.22,0.64-4.81,1.93c-1.59,1.29-2.65,3.03-3.2,5.22c-0.55,2.19-0.82,6.06-0.82,11.59
			c0,3.91,0.19,6.3,0.57,7.17c0.38,0.87,1.32,1.31,2.83,1.31c0.6,0,0.96,0.04,1.09,0.11c0.13,0.07,0.2,0.26,0.2,0.57
			c0,0.38-0.46,0.57-1.39,0.57H84.27c-1.31,0-1.97-0.23-1.97-0.68c0-0.4,0.24-0.62,0.72-0.64c1.29-0.05,2.16-0.29,2.63-0.74
			s0.8-1.75,1.02-3.91c0.21-2.17,0.32-5.69,0.32-10.57c0-4.88-0.03-7.84-0.09-8.87s-0.41-1.85-1.05-2.48
			c-0.64-0.62-1.74-0.95-3.29-0.97c-0.62-0.02-0.93-0.23-0.93-0.63c0-0.25,0.08-0.43,0.25-0.54c0.17-0.1,1.25-0.26,3.24-0.46
			s3.75-0.3,5.28-0.3C90.77,103.32,91.37,103.33,92.18,103.35z"/>
		<path class="st0" d="M157.91,129.53c-1.17,1.69-2.56,2.96-4.18,3.81c-1.62,0.85-3.46,1.27-5.51,1.27c-2.41,0-4.3-0.64-5.67-1.93
			s-2.06-2.98-2.06-5.08c0-1.57,0.41-3.04,1.23-4.4c0.82-1.36,1.76-2.34,2.83-2.93c1.06-0.6,2.93-1.35,5.6-2.25
			c3.81-1.26,6.1-2.31,6.87-3.15c0.76-0.83,1.14-1.92,1.14-3.26c0-2.13-0.5-3.79-1.5-4.97s-2.42-1.78-4.26-1.78
			c-1.5,0-2.63,0.34-3.4,1.01c-0.76,0.69-1.35,2.05-1.75,4.06c-0.43,2.2-1.37,3.3-2.83,3.3c-0.52,0-1.1-0.26-1.73-0.79
			c-0.63-0.52-0.95-1.3-0.95-2.32c0-1.79,0.99-3.34,2.97-4.67s4.7-1.98,8.15-1.98c2.74,0,4.93,0.39,6.56,1.16
			c1.63,0.78,2.66,1.67,3.08,2.67c0.42,1,0.63,2.94,0.63,5.8l-0.21,9.45c0,3.65,0.22,6.25,0.66,7.79c0.44,1.54,1.26,2.31,2.45,2.31
			c0.24,0,0.57-0.04,1-0.11l0.61-0.07c0.55,0,0.82,0.2,0.82,0.6c0,0.91-2.35,1.37-7.05,1.37c-1.36,0-2.27-0.32-2.74-0.95
			S157.95,131.53,157.91,129.53z M157.91,115.58c-0.72,0.93-2.34,2.06-4.86,3.4c-2.5,1.29-4.3,2.52-5.4,3.68
			c-1.1,1.19-1.65,2.62-1.65,4.29c0,1.5,0.45,2.78,1.34,3.83c0.89,1.05,2.01,1.57,3.34,1.57c1.38,0,2.68-0.42,3.9-1.27
			c1.22-0.85,2.12-1.92,2.7-3.24c0.58-1.31,0.88-3.25,0.88-5.83C158.16,120.09,158.07,117.94,157.91,115.58z"/>
		<path class="st0" d="M171.42,119.68c0-4.37,1.4-8.19,4.2-11.46c2.8-3.27,6.22-4.91,10.25-4.91c2.6,0,5.09,0.64,7.47,1.91
			c2.38,1.28,3.58,2.87,3.58,4.77c0,0.74-0.23,1.39-0.68,1.95c-0.45,0.56-0.98,0.84-1.57,0.84c-1.33,0-2.36-1.07-3.08-3.22
			c-1.1-3.29-3.02-4.94-5.76-4.94c-2.72,0-4.79,1.18-6.2,3.53c-1.42,2.35-2.13,5.44-2.13,9.26c0,4.49,0.99,8.15,2.97,10.99
			c1.98,2.84,4.36,4.26,7.15,4.26c1.84,0,3.61-0.71,5.33-2.15c1.69-1.41,2.68-3.12,2.97-5.15c0.12-0.69,0.38-1.04,0.79-1.04
			c0.43,0,0.64,0.21,0.64,0.64c0,2.34-1.08,4.53-3.24,6.58c-2.16,2.05-5.05,3.08-8.67,3.08c-3.96,0-7.28-1.5-9.98-4.51
			C172.77,127.13,171.42,123.64,171.42,119.68z"/>
		<path class="st0" d="M211.37,108.73c2.88-3.56,6.31-5.35,10.26-5.35c3.15,0,5.56,0.89,7.24,2.68s2.52,4.97,2.52,9.55l-0.21,9.48
			c0,3.03,0.04,4.86,0.11,5.51c0.07,0.64,0.41,1.2,1.02,1.68c0.61,0.48,1.21,0.73,1.81,0.75c0.64,0,0.97,0.14,0.97,0.43
			c0,0.43-0.53,0.64-1.57,0.64h-10.58c-0.41-0.1-0.61-0.3-0.61-0.61c0-0.33,0.27-0.54,0.82-0.61c1.69-0.21,2.69-0.88,3-1.98
			c0.31-1.11,0.47-4.63,0.47-10.57c0-6.39-0.64-10.51-1.91-12.36c-1.28-1.85-2.96-2.77-5.06-2.77c-2.05,0-3.86,0.78-5.42,2.34
			c-1.56,1.56-2.49,3.86-2.77,6.88c-0.29,3.03-0.43,6.72-0.43,11.09c0,2.96,0.15,4.89,0.46,5.79c0.31,0.91,1.19,1.5,2.65,1.79
			c0.6,0.1,0.89,0.31,0.89,0.64c0,0.38-0.29,0.57-0.86,0.57l-7.22-0.14c-1.55,0-2.9,0.04-4.04,0.11c-0.71,0-1.07-0.19-1.07-0.57
			c0-0.33,0.29-0.54,0.86-0.61c1.14-0.14,1.92-0.46,2.33-0.96c0.4-0.5,0.75-2.42,1.04-5.77c0.29-3.35,0.43-7.63,0.43-12.85
			c0-9.31-0.04-15.42-0.12-18.31c-0.08-2.89-0.51-4.99-1.27-6.29c-0.76-1.3-1.69-2.05-2.79-2.27c-0.67-0.14-1-0.38-1-0.72
			c0-0.19,0.08-0.3,0.23-0.34s0.92-0.05,2.31-0.05c2.34,0,4.85-0.08,7.55-0.25l-0.11,17.78
			C211.26,105.34,211.3,107.22,211.37,108.73z"/>
		<path class="st0" d="M251.28,106.68c-0.33,5.28-0.5,10.46-0.5,15.54c0,3.92,0.47,6.47,1.4,7.66c0.93,1.19,2.27,1.79,4.02,1.79
			c1.27,0,2.67-0.47,4.2-1.4c0.55-0.33,0.88-0.5,1-0.5c0.31,0,0.46,0.17,0.46,0.5c0,0.57-0.85,1.48-2.55,2.72
			c-1.7,1.24-3.78,1.86-6.24,1.86c-2.44,0-4.27-0.85-5.49-2.54c-1.22-1.69-1.83-4.23-1.83-7.59c0-3.51,0.21-9.52,0.64-18.05
			c-0.17-0.05-1.3-0.13-3.4-0.25l-2.15-0.14c-0.52-0.02-0.79-0.2-0.79-0.53c0-0.31,0.3-0.56,0.89-0.75c0.97-0.36,2.61-1.4,4.92-3.14
			c2.3-1.74,3.65-4.18,4.03-7.35c0.1-0.83,0.37-1.25,0.81-1.25c0.44,0,0.66,0.33,0.66,1c0,0.21-0.01,0.44-0.04,0.68
			c-0.07,0.93-0.11,2-0.11,3.21l0.04,5.56l7.83-0.11c1.33,0,2.03,0.16,2.07,0.46c-0.02,1.1-0.2,1.79-0.54,2.07
			C259.41,106.14,256.28,106.32,251.28,106.68z"/>
		<path class="st0" d="M275.2,103.39l-0.04,8.05l0.07,7.51v5.65l-0.04,4.29c0,1.72,0.28,2.81,0.84,3.27
			c0.56,0.46,1.4,0.72,2.52,0.77c1.31,0.07,1.97,0.35,1.97,0.82c0,0.38-0.25,0.57-0.75,0.57c-0.19,0-0.41-0.01-0.64-0.04
			c-2.22-0.29-4.28-0.43-6.19-0.43c-3.05,0-5.16,0.1-6.33,0.29c-0.24,0.05-0.48,0.07-0.71,0.07c-0.57,0-0.86-0.21-0.86-0.64
			s0.66-0.73,1.99-0.89c1.33-0.17,2.17-0.46,2.54-0.88c0.37-0.42,0.55-1.6,0.55-3.56l0.25-14.81c0-3.96-0.3-6.3-0.89-7.03
			c-0.6-0.73-1.75-1.11-3.47-1.16c-0.57,0-0.86-0.19-0.86-0.57c0-0.21,0.09-0.38,0.29-0.5c0.19-0.12,1.61-0.27,4.26-0.46
			C272.34,103.52,274.17,103.41,275.2,103.39z M271.23,85.9c0.91,0,1.72,0.33,2.43,1c0.71,0.67,1.07,1.4,1.07,2.18
			c0,0.93-0.29,1.73-0.88,2.4c-0.58,0.67-1.39,1-2.41,1c-0.91,0-1.72-0.29-2.43-0.88c-0.72-0.58-1.07-1.38-1.07-2.38
			c0-0.98,0.3-1.78,0.91-2.4C269.46,86.21,270.25,85.9,271.23,85.9z"/>
		<path class="st0" d="M302.48,129.53c-1.17,1.69-2.56,2.96-4.18,3.81c-1.62,0.85-3.46,1.27-5.51,1.27c-2.41,0-4.3-0.64-5.67-1.93
			c-1.37-1.29-2.06-2.98-2.06-5.08c0-1.57,0.41-3.04,1.23-4.4c0.82-1.36,1.76-2.34,2.83-2.93s2.93-1.35,5.6-2.25
			c3.81-1.26,6.1-2.31,6.87-3.15c0.76-0.83,1.14-1.92,1.14-3.26c0-2.13-0.5-3.79-1.5-4.97c-1-1.18-2.42-1.78-4.26-1.78
			c-1.5,0-2.63,0.34-3.4,1.01c-0.76,0.69-1.35,2.05-1.75,4.06c-0.43,2.2-1.37,3.3-2.83,3.3c-0.52,0-1.1-0.26-1.73-0.79
			s-0.95-1.3-0.95-2.32c0-1.79,0.99-3.34,2.97-4.67c1.98-1.32,4.7-1.98,8.15-1.98c2.74,0,4.93,0.39,6.56,1.16
			c1.63,0.78,2.66,1.67,3.08,2.67s0.63,2.94,0.63,5.8l-0.21,9.45c0,3.65,0.22,6.25,0.66,7.79c0.44,1.54,1.26,2.31,2.45,2.31
			c0.24,0,0.57-0.04,1-0.11l0.61-0.07c0.55,0,0.82,0.2,0.82,0.6c0,0.91-2.35,1.37-7.04,1.37c-1.36,0-2.27-0.32-2.74-0.95
			S302.53,131.53,302.48,129.53z M302.48,115.58c-0.71,0.93-2.34,2.06-4.86,3.4c-2.5,1.29-4.3,2.52-5.4,3.68
			c-1.1,1.19-1.64,2.62-1.64,4.29c0,1.5,0.45,2.78,1.34,3.83c0.89,1.05,2.01,1.57,3.34,1.57c1.38,0,2.68-0.42,3.9-1.27
			c1.22-0.85,2.12-1.92,2.7-3.24c0.58-1.31,0.88-3.25,0.88-5.83C302.73,120.09,302.65,117.94,302.48,115.58z"/>
		<path class="st0" d="M325.05,103.49c0.57,1.41,0.92,3.78,1.04,7.12c1.48-2.34,3.12-4.09,4.92-5.26c1.8-1.17,3.76-1.75,5.88-1.75
			c1.62,0,3.19,0.3,4.7,0.91c1.51,0.61,2.68,1.66,3.5,3.14s1.23,4.02,1.23,7.59l-0.21,12.04c0,2.21,0.18,3.6,0.55,4.16
			c0.37,0.56,1.16,1.01,2.38,1.34c0.83,0.24,1.25,0.5,1.25,0.79c0,0.36-0.2,0.54-0.61,0.54c-0.17,0-0.33-0.01-0.5-0.03
			c-1.1-0.22-2.72-0.33-4.86-0.33c-1.93,0-4.01,0.08-6.22,0.25c-0.88,0-1.32-0.2-1.32-0.61c0-0.29,0.24-0.48,0.71-0.57
			c1.31-0.29,2.17-0.58,2.58-0.89c0.41-0.31,0.69-0.72,0.86-1.23c0.17-0.51,0.3-2.23,0.41-5.16c0.11-2.93,0.16-5.31,0.16-7.14
			c0-5.02-0.63-8.37-1.9-10.04c-1.26-1.67-2.84-2.5-4.72-2.5c-2.79,0-5.11,1.51-6.96,4.52c-1.85,3.02-2.77,8.04-2.77,15.07
			c0,3.19,0.21,5.23,0.63,6.1c0.42,0.87,1.46,1.4,3.13,1.59c0.52,0.05,0.79,0.27,0.79,0.68c0,0.33-0.26,0.5-0.79,0.5l-1.85-0.14
			c-0.67-0.05-2.87-0.07-6.6-0.07l-2.85,0.07c-1.05,0-1.57-0.19-1.57-0.57c0-0.41,0.57-0.72,1.7-0.93c1.09-0.21,1.82-0.59,2.2-1.13
			s0.63-2.32,0.76-5.35c0.13-3.03,0.2-6.82,0.2-11.35c0-4.23-0.29-6.85-0.86-7.88c-0.57-1.03-1.37-1.66-2.4-1.9
			c-0.93-0.21-1.4-0.51-1.4-0.89c0-0.41,0.36-0.61,1.07-0.61l2.9,0.04C320.53,103.6,322.14,103.57,325.05,103.49z"/>
		<path class="st0" d="M364.99,103.39l-0.04,8.05l0.07,7.51v5.65l-0.04,4.29c0,1.72,0.28,2.81,0.84,3.27
			c0.56,0.46,1.4,0.72,2.52,0.77c1.31,0.07,1.97,0.35,1.97,0.82c0,0.38-0.25,0.57-0.75,0.57c-0.19,0-0.41-0.01-0.64-0.04
			c-2.22-0.29-4.28-0.43-6.19-0.43c-3.05,0-5.16,0.1-6.33,0.29c-0.24,0.05-0.48,0.07-0.71,0.07c-0.57,0-0.86-0.21-0.86-0.64
			s0.66-0.73,1.99-0.89c1.33-0.17,2.17-0.46,2.54-0.88c0.37-0.42,0.55-1.6,0.55-3.56l0.25-14.81c0-3.96-0.3-6.3-0.89-7.03
			c-0.6-0.73-1.75-1.11-3.47-1.16c-0.57,0-0.86-0.19-0.86-0.57c0-0.21,0.09-0.38,0.29-0.5c0.19-0.12,1.61-0.27,4.26-0.46
			C362.13,103.52,363.97,103.41,364.99,103.39z M361.02,85.9c0.91,0,1.72,0.33,2.43,1c0.71,0.67,1.07,1.4,1.07,2.18
			c0,0.93-0.29,1.73-0.88,2.4c-0.58,0.67-1.39,1-2.41,1c-0.91,0-1.72-0.29-2.43-0.88c-0.72-0.58-1.07-1.38-1.07-2.38
			c0-0.98,0.3-1.78,0.91-2.4C359.25,86.21,360.05,85.9,361.02,85.9z"/>
	</g>
</g>
</svg>
