<?xml version="1.0" encoding="utf-8"?>
<!-- Generator: Adobe Illustrator 24.0.2, SVG Export Plug-In . SVG Version: 6.00 Build 0)  -->
<svg version="1.1" id="Capa_1" xmlns="http://www.w3.org/2000/svg" xmlns:xlink="http://www.w3.org/1999/xlink" x="0px" y="0px"
	 viewBox="0 0 16 16" style="enable-background:new 0 0 16 16;" xml:space="preserve">
<style type="text/css">
	.st0{fill:#FFFFFF;}
</style>
<path class="st0" d="M1,11.9L0,16l4.1-1l9.2-9.2l-3.1-3.1C10.2,2.7,1,11.9,1,11.9z M1.5,15l-0.4-0.5l0.4-2l2,2L1.5,15z M10.9,4.4
	l-8.1,8l-0.6-0.6l8.1-8C10.3,3.8,10.9,4.4,10.9,4.4z"/>
<path class="st0" d="M15.3,0.7c-1.1-1.1-2.6-0.5-2.6-0.5l-1.5,1.5l3.1,3.1l1.5-1.5C15.8,3.2,16.4,1.8,15.3,0.7z M13.4,1.6l-0.5-0.5
	C13.5,0.5,14,1,14,1L13.4,1.6z"/>
</svg>
